<svg width="97" height="98" viewBox="0 0 97 98" fill="none" xmlns="http://www.w3.org/2000/svg">
<circle cx="48.5" cy="49" r="48.5" fill="#17508F" fill-opacity="0.1"/>
<path d="M60.0367 36.4687C59.1268 35.5585 58.5941 34.3384 58.545 33.0523C58.4959 31.7663 58.9342 30.5091 59.772 29.5322C59.8413 29.4509 59.8774 29.3465 59.8729 29.2398C59.8684 29.1331 59.8238 29.032 59.748 28.9569L54.9213 24.1247C54.8415 24.0449 54.7333 24.0001 54.6205 24.0001C54.5077 24.0001 54.3995 24.0449 54.3197 24.1247L46.6263 31.8181C46.3424 32.1019 46.1286 32.4479 46.0017 32.8287C45.8754 33.2104 45.6618 33.5574 45.378 33.8422C45.0941 34.127 44.7478 34.3417 44.3666 34.4694C43.9855 34.5963 43.6392 34.8101 43.3549 35.0939L23.6247 54.8197C23.545 54.8995 23.5002 55.0076 23.5002 55.1204C23.5002 55.2333 23.545 55.3414 23.6247 55.4212L28.4514 60.2479C28.5266 60.3238 28.6277 60.3684 28.7344 60.3729C28.841 60.3773 28.9455 60.3413 29.0267 60.272C30.0034 59.4332 31.2609 58.9943 32.5474 59.0431C33.8339 59.0918 35.0545 59.6248 35.9649 60.5351C36.8752 61.4455 37.4081 62.6661 37.4569 63.9526C37.5057 65.2391 37.0668 66.4966 36.228 67.4733C36.1587 67.5545 36.1226 67.6589 36.1271 67.7656C36.1316 67.8723 36.1762 67.9734 36.252 68.0486L41.0788 72.8753C41.1585 72.955 41.2667 72.9998 41.3795 72.9998C41.4923 72.9998 41.6005 72.955 41.6803 72.8753L61.4116 53.1451C61.6953 52.8608 61.9091 52.5145 62.0361 52.1334C62.1625 51.7517 62.376 51.4047 62.6599 51.1199C62.9437 50.8352 63.29 50.6204 63.6713 50.4928C64.0521 50.366 64.3981 50.1521 64.6819 49.8683L72.3753 42.1748C72.4551 42.095 72.4999 41.9868 72.4999 41.874C72.4999 41.7612 72.4551 41.653 72.3753 41.5733L67.5486 36.7465C67.4734 36.6707 67.3724 36.6261 67.2657 36.6216C67.159 36.6172 67.0545 36.6532 66.9733 36.7225C65.9977 37.5618 64.7413 38.0019 63.4553 37.9549C62.1692 37.9078 60.9483 37.3771 60.0367 36.4687Z" stroke="#758AFF" stroke-width="4" stroke-miterlimit="10"/>
<path d="M47.3984 35.8606L45.5927 34.0548M52.2131 40.6753L51.0089 39.4722M57.0278 45.4911L55.8247 44.2868M62.4452 50.9073L60.6394 49.1015" stroke="#758AFF" stroke-width="4" stroke-miterlimit="10" stroke-linecap="round"/>
</svg>
