<svg width="107" height="104" viewBox="0 0 107 104" fill="none" xmlns="http://www.w3.org/2000/svg">
<ellipse cx="53.1607" cy="51.5957" rx="53.0036" ry="51.5957" fill="#17508F" fill-opacity="0.1"/>
<path d="M45.3713 50.1205C45.2948 50.1205 45.2438 50.1205 45.1673 50.1205C45.0398 50.0957 44.8613 50.0957 44.7083 50.1205C37.3133 49.8971 31.7288 44.2376 31.7288 37.2624C31.7288 30.1631 37.6703 24.3794 44.9633 24.3794C52.2563 24.3794 58.1978 30.1631 58.1978 37.2624C58.1723 44.2376 52.5623 49.8971 45.4478 50.1205C45.4223 50.1205 45.3968 50.1205 45.3713 50.1205ZM44.9633 28.1028C39.7868 28.1028 35.5538 32.2234 35.5538 37.2624C35.5538 42.2269 39.5318 46.2234 44.6063 46.3971C44.7593 46.3723 45.0908 46.3723 45.4223 46.3971C50.4203 46.1737 54.3473 42.1773 54.3728 37.2624C54.3728 32.2234 50.1398 28.1028 44.9633 28.1028Z" fill="#758AFF"/>
<path d="M64.1903 50.4433C64.1138 50.4433 64.0373 50.4433 63.9608 50.4185C62.9153 50.5177 61.8443 49.7979 61.7423 48.7802C61.6403 47.7624 62.2778 46.844 63.3233 46.7199C63.6293 46.6951 63.9608 46.6951 64.2413 46.6951C67.9643 46.4965 70.8713 43.5178 70.8713 39.8688C70.8713 36.0958 67.7348 33.0426 63.8588 33.0426C62.8133 33.0674 61.9463 32.2234 61.9463 31.2057C61.9463 30.188 62.8133 29.344 63.8588 29.344C69.8258 29.344 74.6963 34.0851 74.6963 39.8936C74.6963 45.6029 70.1063 50.2199 64.2668 50.4433C64.2413 50.4433 64.2158 50.4433 64.1903 50.4433Z" fill="#758AFF"/>
<path d="M45.3968 77.2517C40.3988 77.2517 35.3753 76.0106 31.5758 73.5283C28.0313 71.2446 26.0933 68.117 26.0933 64.7163C26.0933 61.3156 28.0313 58.1631 31.5758 55.8546C39.2258 50.9149 51.6188 50.9149 59.2178 55.8546C62.7368 58.1383 64.7003 61.2659 64.7003 64.6666C64.7003 68.0673 62.7623 71.2198 59.2178 73.5283C55.3928 76.0106 50.3948 77.2517 45.3968 77.2517ZM33.6923 58.9822C31.2443 60.5709 29.9183 62.6063 29.9183 64.7411C29.9183 66.851 31.2698 68.8865 33.6923 70.4503C40.0418 74.5957 50.7518 74.5957 57.1013 70.4503C59.5493 68.8617 60.8753 66.8262 60.8753 64.6914C60.8753 62.5815 59.5238 60.5461 57.1013 58.9822C50.7518 54.8617 40.0418 54.8617 33.6923 58.9822Z" fill="#758AFF"/>
<path d="M68.7803 72.7837C67.8878 72.7837 67.0973 72.1879 66.9188 71.2943C66.7148 70.2766 67.3778 69.3085 68.3978 69.0851C70.0043 68.7624 71.4833 68.1418 72.6308 67.273C74.0843 66.2057 74.8748 64.8652 74.8748 63.4503C74.8748 62.0355 74.0843 60.695 72.6563 59.6525C71.5343 58.8085 70.1318 58.2128 68.4743 57.8404C67.4543 57.617 66.7913 56.6241 67.0208 55.6064C67.2503 54.6135 68.2703 53.9681 69.3158 54.1915C71.5088 54.6631 73.4213 55.5071 74.9768 56.6737C77.3483 58.4113 78.6998 60.8688 78.6998 63.4503C78.6998 66.0319 77.3228 68.4894 74.9513 70.2518C73.3703 71.4433 71.3813 72.312 69.1883 72.734C69.0353 72.7837 68.9078 72.7837 68.7803 72.7837Z" fill="#758AFF"/>
</svg>
