<svg width="98" height="97" viewBox="0 0 98 97" fill="none" xmlns="http://www.w3.org/2000/svg">
<circle cx="48.6571" cy="48.5" r="48.5" fill="#17508F" fill-opacity="0.1"/>
<path d="M56.4904 55.5475C56.4904 53.2454 49.9613 51.3809 41.9071 51.3809M56.4904 55.5475C56.4904 57.8496 49.9613 59.7142 41.9071 59.7142C33.8529 59.7142 27.3238 57.8496 27.3238 55.5475M56.4904 55.5475V65.8329C56.4904 68.2059 49.9613 70.1309 41.9071 70.1309C33.8529 70.1309 27.3238 68.2079 27.3238 65.8329V55.5475M56.4904 55.5475C64.4571 55.5475 71.0738 53.4913 71.0738 51.3809V30.5475M41.9071 51.3809C33.8529 51.3809 27.3238 53.2454 27.3238 55.5475M41.9071 51.3809C32.7029 51.3809 25.2404 49.3246 25.2404 47.2142V36.7975M41.9071 32.6309C32.7029 32.6309 25.2404 34.4954 25.2404 36.7975M25.2404 36.7975C25.2404 39.0996 32.7029 40.9642 41.9071 40.9642C41.9071 43.0746 48.6842 45.1309 56.6509 45.1309C64.6154 45.1309 71.0738 43.0746 71.0738 40.9642M71.0738 30.5475C71.0738 28.2454 64.6154 26.3809 56.6509 26.3809C48.6842 26.3809 42.2279 28.2454 42.2279 30.5475M71.0738 30.5475C71.0738 32.8496 64.6154 34.7142 56.6509 34.7142C48.6863 34.7142 42.2279 32.8496 42.2279 30.5475M42.2279 30.5475V51.7267" stroke="#758AFF" stroke-width="3"/>
</svg>
